<svg xmlns="http://www.w3.org/2000/svg" xmlns:xlink="http://www.w3.org/1999/xlink" width="3877px" height="1442px" viewBox="0 0 3876.851592507681 1442.0522281149624">
    <g style="" id="e4f71374-6268-4dd0-a237-4bb865f0d4e1">
<g style=""><g>
        <defs transform="matrix(0.995671 -0.09295 0.09295 0.995671 1940.185661 600.077185) translate(0.00598401219895095 51.77158288027351) translate(-7.244913585685436 -0.6763451365212431)">
          <filter id="blur-2" x="-21.1127%" y="-23.0161%" width="142.2254%" height="146.0322%" color-interpolation-filters="sRGB">
            <feGaussianBlur stdDeviation="10.5"></feGaussianBlur>
        </filter>
        </defs>
        <path d="M-1261.27825 -407.72668C-1256.26828 -412.92778 -1250.23768 -412.30306 -1242.90497 -404.75719C-1235.94143 -397.53813 -1225.75452 -381.48894 -1213.00758 -359.33086C-1193.06752 -324.10876 -1185.91482 -309.81131 -1166.93630 -255.58634C-1139.22377 -184.55155 -1127.97012 -139.52376 -1120.83451 -74.49432C-1115.06913 -22.33572 -1115.76721 10.46612 -1124.62645 56.68978C-1138.18510 126.12847 -1164.82916 184.44659 -1193.60073 202.24461C-1200.49193 206.59532 -1205.80576 216.01689 -1209.18769 230.59891C-1213.34895 249.16953 -1216.71524 252.99981 -1228.27491 259.52791C-1246.27375 270.03095 -1253.67715 263.69410 -1262.54327 234.60558C-1270.90989 206.17198 -1271.46727 181.24644 -1263.47945 161.42569C-1260.12457 152.55278 -1257.94407 141.55307 -1257.17445 128.30909C-1256.62804 115.03503 -1255.31599 76.27421 -1253.76386 11.96036C-1251.09121 -103.15838 -1249.46768 -171.23990 -1248.84712 -194.59683L-1246.82008 -268.55443L-1254.88194 -295.15628C-1262.43340 -320.88269 -1264.22854 -342.72713 -1265.66793 -385.37309C-1265.77278 -394.85801 -1265.01469 -402.75445 -1261.27825 -407.72668ZM-1212.29118 73.99267C-1212.40296 92.79797 -1210.93690 101.92111 -1207.87350 102.42508C-1204.77716 103.90526 -1197.50771 93.28394 -1187.48872 70.67165C-1167.09450 29.34043 -1160.95907 5.90616 -1159.85503 -38.53305C-1158.45320 -88.51451 -1164.38129 -119.90085 -1188.85661 -187.53321C-1197.05216 -210.36781 -1202.50871 -217.56634 -1205.24632 -208.85830C-1206.03010 -206.20002 -1206.55567 -164.89972 -1206.42800 -83.85490C-1206.26463 -3.86216 -1206.81051 38.47211 -1209.03131 42.92119C-1211.33345 47.43665 -1212.19116 57.16687 -1212.29118 73.99267ZM-1032.23551 -278.14865C-1017.67321 -279.44235 -1002.87498 -273.87719 -988.17920 -260.18474C-977.80265 -250.97937 -968.92102 -243.31120 -960.52209 -236.75328C-931.70008 -216.17035 -902.23028 -165.83144 -892.53514 -120.07668C-884.03051 -81.40574 -883.02705 -58.72463 -886.38500 -12.39378C-888.23602 11.25065 -889.82901 31.93283 -890.69375 51.22330C-891.44975 59.59716 -892.66608 68.76934 -895.75739 78.46719C-898.23888 88.24007 -905.46877 110.79581 -916.32987 145.84974C-929.87527 189.27406 -954.88408 237.93009 -973.50127 254.42350C-983.71696 264.06559 -989.21221 265.57755 -1011.48367 264.05640C-1042.16513 263.06852 -1064.45624 248.17098 -1079.49085 219.77635C-1094.26552 189.83103 -1114.41055 108.15793 -1116.70677 71.95637C-1117.79019 51.49697 -1120.84400 31.50690 -1124.88234 12.21852C-1131.79452 -16.29800 -1131.80491 -19.09000 -1129.03299 -56.45794C-1124.71122 -115.30814 -1102.30350 -192.53318 -1072.24713 -245.79254C-1058.45864 -270.63400 -1049.42498 -276.23660 -1032.23551 -278.14865ZM-1070.37870 -36.25949C-1069.40521 16.27284 -1069.16912 24.33931 -1061.07648 60.35741C-1055.66743 85.89821 -1048.92861 106.21615 -1041.36732 122.12195L-1030.50066 144.24175L-1010.26191 146.70685C-996.68986 148.19427 -985.71901 145.29982 -977.21052 138.79218C-962.58855 126.58113 -945.70286 94.66167 -936.12924 59.92608C-923.97546 16.63402 -929.00976 -34.68623 -950.35369 -96.48783C-957.43078 -115.60563 -970.93960 -138.54101 -985.01232 -152.23918C-998.93367 -166.11650 -1020.30443 -170.21311 -1032.03826 -163.24330C-1043.59215 -156.05372 -1063.54679 -123.45900 -1068.05040 -106.36788C-1070.24289 -97.24829 -1071.01838 -74.51270 -1070.37870 -36.25949ZM-891.79603 -199.54121C-887.37426 -208.03764 -872.07047 -201.94314 -863.25482 -189.86700C-856.51132 -180.85307 -843.25376 -150.42072 -822.64987 -100.72574C-817.06120 -87.50227 -802.92286 -57.64975 -780.46230 -11.39891C-765.89901 15.12109 -759.73374 19.73180 -760.23373 1.78650C-760.68658 -9.02675 -760.89372 -21.90128 -759.18247 -35.85771C-757.82366 -51.21408 -758.22532 -65.53697 -760.54147 -78.87633C-762.87368 -92.96464 -763.27367 -107.32087 -761.78403 -123.32890C-758.57637 -164.39612 -757.59912 -164.12276 -735.95806 -157.49495L-716.54268 -151.71060L-715.03845 -136.10682C-712.84712 -126.55367 -712.61866 -119.58533 -713.55659 -116.33723C-716.35063 -109.36544 -714.91406 -28.49298 -708.74707 126.09394C-706.35331 207.78796 -705.24996 251.72638 -707.88191 257.92600C-709.00245 262.09613 -712.50819 260.62433 -717.37533 254.13705C-721.48395 249.09934 -728.18260 234.74001 -738.47885 212.30173C-748.66999 187.43636 -758.40150 166.63704 -767.83473 149.26737C-777.44564 128.70130 -782.97588 114.31631 -784.97747 106.05609C-786.47026 97.16997 -790.62242 86.45132 -796.98773 73.80125C-802.39770 61.97166 -808.44858 47.76794 -814.72612 32.67974C-825.26210 4.77826 -832.39009 -9.35481 -837.11640 -10.30820C-839.33360 -10.78625 -839.65209 19.97165 -836.51479 82.03994C-834.51493 143.26138 -831.44227 180.32800 -828.98029 192.54788C-824.32770 219.08721 -826.94832 232.39363 -837.63871 246.26471C-844.81340 254.33499 -852.02324 258.67069 -859.55321 258.42711C-867.48553 258.16749 -871.11175 257.27454 -871.60140 256.47764C-902.20570 206.49473 -883.46787 44.75377 -891.23143 -101.88171C-893.93669 -162.35863 -894.22958 -194.99364 -891.79603 -199.54121ZM-716.31609 -161.35168C-710.37363 -161.87512 -683.56993 -156.50223 -634.09009 -145.11389C-583.61234 -135.63099 -549.33918 -127.70621 -531.96457 -121.12987C-514.55384 -114.77397 -504.93500 -110.30025 -502.44130 -107.43924C-499.98032 -105.21978 -500.10383 -98.27908 -502.05055 -87.13277C-503.98339 -75.97353 -503.24719 -66.38394 -500.95273 -58.51434C-498.66526 -50.65759 -498.02126 -45.52573 -497.96182 -42.35607C-498.47525 -40.51297 -513.06132 -40.87895 -540.78822 -44.28292C-568.54305 -48.73488 -582.82559 -48.88817 -584.61354 -45.89467C-586.33668 -42.89753 -585.74330 -8.21349 -582.75120 58.75307C-578.75876 151.20163 -577.01049 212.06025 -577.11800 240.82289C-577.24868 269.60057 -580.00887 288.56172 -585.43479 297.71551C-587.73913 302.31021 -590.60463 305.59797 -592.73343 306.25520C-595.66045 306.91397 -602.05559 307.57428 -611.90608 307.57428C-621.71431 307.57428 -627.80754 306.90378 -630.19878 306.23158C-632.32377 305.55820 -635.02669 302.86412 -636.72966 298.14677C-640.13274 289.36010 -641.94856 241.45507 -642.34483 153.20958C-643.21913 110.74243 -643.81473 72.43990 -643.80407 38.21667C-644.88155 -6.22734 -644.58258 -30.97055 -643.61189 -36.18026C-642.73341 -42.05726 -644.87637 -47.12379 -649.15273 -49.87185C-653.81055 -52.72759 -664.51082 -56.06090 -680.95326 -59.84818C-699.10999 -64.79169 -710.22971 -69.20352 -714.34894 -73.53445C-718.63463 -77.24082 -720.86641 -83.97729 -720.11212 -94.25822C-719.11922 -103.07080 -720.64778 -113.15975 -723.98143 -125.79123C-731.25703 -149.26865 -728.61247 -159.03442 -716.31609 -161.35168ZM-277.05002 -121.52980C-273.04271 -124.72181 -201.99749 -127.10050 -198.57791 -124.30343C-197.45089 -122.54244 -197.77665 -118.15893 -199.85073 -110.51090C-202.22720 -102.22640 -203.14574 -98.42337 -202.88493 -97.82550C-202.99207 -87.87704 -207.04619 -79.48048 -214.77782 -72.08749C-225.42384 -62.10690 -257.31913 -50.69473 -277.49512 -50.10875C-298.24682 -49.79486 -300.53155 -51.62311 -298.14454 -12.88927C-296.23074 20.92672 -293.74902 25.21164 -278.22731 20.08348C-271.41054 17.48800 -264.20696 16.08944 -255.74028 15.21768L-244.09557 13.59666L-241.73133 35.74015C-239.58693 56.06062 -239.97351 58.53250 -246.33296 68.01350C-249.83193 74.28271 -255.63962 78.74665 -264.34852 80.79538C-272.44372 82.17094 -278.37642 85.95397 -282.28230 91.54673C-284.45357 95.87638 -285.90219 100.19822 -286.06348 105.12109C-286.36204 110.04655 -285.64396 123.57943 -283.54136 146.33008C-280.81469 176.46429 -279.72453 199.84769 -278.61336 217.07775L-277.27355 241.69798L-290.47882 262.04590C-299.64248 274.97589 -304.80765 281.74322 -306.25952 281.74358C-308.03536 281.74394 -310.35980 278.05403 -312.75796 270.67363C-317.44656 261.44622 -319.67265 259.60003 -324.97141 260.20876C-328.17944 260.81899 -330.23216 260.81519 -331.33026 258.96838C-331.97844 257.12030 -333.14877 252.81065 -334.74382 244.80507C-336.20090 233.10872 -336.25767 221.41578 -335.39192 208.49739C-332.98627 184.50994 -343.14973 -26.08420 -347.43303 -42.79880C-349.69525 -50.85929 -351.26145 -62.59821 -352.39811 -78.02859L-354.77553 -101.50682L-344.64487 -107.37238C-337.59905 -111.51952 -325.42272 -114.40294 -306.97182 -116.16960C-288.18400 -117.59124 -278.48220 -119.64581 -277.05002 -121.52980ZM-144.09238 -121.81742C-127.90418 -129.87681 -111.78859 -133.13454 -96.32045 -130.11341C-85.22326 -128.35139 -75.79232 -126.97468 -66.94252 -126.18841C-36.71045 -125.01604 -6.48743 -98.38177 2.71565 -63.61825C11.03564 -33.63762 11.91405 -14.14342 8.09549 27.88188C6.21136 49.23737 4.74572 67.73784 3.14091 84.90336C2.67281 92.41452 1.15442 100.75909 -1.95764 109.92574C-3.94862 118.99133 -12.18329 140.08448 -23.46655 171.76141C-37.18665 210.00545 -62.79448 251.89396 -81.26516 266.02099C-92.68403 273.97479 -97.24779 275.34421 -119.61604 275.01100C-150.02260 275.37586 -173.04194 265.56980 -188.19815 246.38061C-203.92548 226.69471 -226.20350 173.17598 -229.13403 149.10897C-230.56011 135.52164 -234.06518 122.62916 -238.32654 110.37996C-246.72423 92.71049 -246.71454 90.85821 -244.52470 65.47506C-240.98488 25.21617 -218.26512 -33.43212 -186.42798 -81.22765C-172.39790 -104.49996 -162.29258 -112.55244 -144.09238 -121.81742ZM-182.36425 65.71646C-180.76185 102.47008 -179.95637 108.05407 -171.54694 132.03315C-165.52162 149.30726 -158.07783 162.80664 -150.60877 173.17254L-139.42679 187.88766L-118.40581 186.91193C-104.75352 186.21763 -93.56772 182.44364 -85.29413 176.18781C-70.25087 164.11118 -53.01792 135.29437 -42.79009 104.66474C-30.75533 65.43568 -34.88511 24.38362 -56.81702 -18.08575C-64.00765 -30.59313 -78.01328 -43.16894 -92.96135 -47.93789C-107.95017 -52.74914 -129.88753 -47.26664 -142.58083 -37.52430C-155.18073 -27.96723 -175.75856 2.14800 -180.73559 15.63587C-182.93372 22.67591 -183.10805 38.92012 -182.36425 65.71646ZM0.55193 -149.19036C11.22849 -159.65946 66.24341 -161.59531 81.39452 -152.04644C91.23696 -145.18483 107.83046 -123.24182 113.90194 -108.03397C120.17969 -91.98351 133.02926 -47.99260 135.34068 -33.85454C138.33330 -16.85969 132.77643 26.81845 124.87748 48.11909C120.15357 59.44325 114.66341 69.58176 107.33931 78.30602C99.80864 88.41884 96.18644 94.52704 96.31959 97.38673C96.40356 100.92786 103.64018 111.64638 118.63699 131.16925C133.73977 151.73773 141.27166 163.61347 141.24609 165.80577C141.22052 167.99807 138.75505 172.53953 133.40884 179.40964C125.52932 189.31760 125.02694 192.94511 126.95877 205.23249C127.03808 214.62646 126.93136 218.99666 124.58261 219.08980C121.07719 219.94778 111.63584 209.55349 95.79530 188.12402C80.14999 167.09037 71.24297 157.84553 68.78244 159.46226C66.75170 160.37178 65.72866 166.03094 64.88698 175.25465C63.61154 184.46890 63.15461 204.90515 61.63894 235.85909C60.19193 256.96066 59.82897 270.34975 56.78026 276.71451C51.81089 290.08398 36.13146 301.33035 22.70212 302.06580L11.65418 302.78508L9.59771 285.03663C7.78925 272.09556 7.42227 261.87038 8.47072 252.98080C11.44887 222.15383 11.92135 162.10402 9.92396 71.73885C8.61557 26.52084 8.20965 -6.63531 6.29373 -25.88798C4.33827 -45.09164 1.30900 -61.93606 -3.49075 -76.96262C-6.00520 -85.12011 -6.29809 -93.73824 -4.40167 -102.24268C-2.01649 -110.23755 -2.06905 -119.61278 -3.29036 -129.35573C-4.69466 -141.70043 -4.65466 -144.39473 0.55193 -149.19036ZM63.65180 -14.80423C65.00144 29.85369 67.24521 52.69980 69.53503 53.79968C70.74336 54.37326 74.04655 51.06718 78.32420 43.41630C84.99023 29.73549 88.03184 8.73099 86.87352 -18.74747C85.92975 -46.23803 82.40524 -66.15124 73.07604 -77.51696C67.89264 -85.65947 64.88910 -86.44389 63.28558 -81.18449C62.17919 -75.36735 61.87898 -52.92389 63.65180 -14.80423ZM213.80413 -211.42780C231.56934 -227.04345 269.40734 -231.96128 287.02952 -220.45002C296.69600 -213.56510 303.94127 -206.98127 307.27218 -198.95919L313.50911 -186.69666L308.84953 -167.36799C304.88956 -151.27220 303.43257 -147.99753 291.39161 -142.40888C282.85695 -138.09478 274.22561 -137.61403 264.48775 -140.74667C254.63051 -143.81061 246.12916 -143.19791 239.53651 -138.34765C217.52008 -124.14826 200.99713 -93.71620 188.36364 -46.29267C185.39338 -33.93069 183.76426 -14.46046 185.05271 11.45450C185.68250 35.83100 185.47931 55.18805 184.48460 68.03113C182.79671 79.99315 184.56688 93.26881 188.18346 108.56141C198.35934 146.64907 218.49771 164.98743 247.57243 163.45700C264.95925 162.61139 266.14909 161.78399 274.96282 145.20673C289.75335 114.28254 288.66679 98.89991 271.36107 94.67793C265.24546 92.81444 258.43676 85.68025 250.55951 71.77470L239.91169 50.66445L246.22093 28.00295C254.02461 -2.51416 261.02054 -5.60426 297.11113 2.33458C304.24518 3.97769 317.12605 5.90974 335.36189 9.82857C351.17908 12.49586 355.10644 21.62231 349.89677 38.54856C347.20751 48.15456 345.54547 56.11728 346.25722 62.36406C346.51488 69.41821 343.43979 80.56928 339.17673 97.34042C334.00501 115.67111 330.79889 133.80395 327.76435 151.93984C317.01984 211.66240 300.88639 243.15782 270.18378 256.08475C244.95447 267.95330 215.11754 257.07558 190.01253 229.96683C161.01470 198.44078 126.27031 95.72796 124.28892 34.43186C123.03647 5.72650 135.25231 -72.32583 144.22505 -95.07751C166.13305 -154.95860 185.53177 -187.00563 213.80413 -211.42780ZM453.16111 -253.56797C455.47924 -257.03162 479.53060 -260.25542 487.76209 -256.98185C494.83686 -254.37914 496.20315 -244.77104 490.80714 -240.24836C488.24874 -238.40266 486.24575 -230.93770 485.08518 -218.69264C482.67509 -186.12127 473.44530 -170.81309 450.45981 -161.58430C436.63354 -156.30445 424.62292 -152.77356 413.82440 -149.31891C389.76812 -142.86046 385.86858 -135.30700 389.08686 -81.63607C390.45720 -34.91479 391.61777 -34.21467 411.54437 -31.77072C426.86228 -29.66418 452.03909 -0.77218 452.23841 15.32946C452.21341 22.57520 450.77256 28.27143 447.48680 31.67266C443.90752 35.87605 435.00643 41.12490 419.95000 49.18503C403.65002 57.28105 394.06359 64.18077 391.15320 68.32201C388.81709 73.22111 388.53451 83.57975 390.43871 98.55549C392.96721 113.53559 394.34499 126.99304 394.86432 138.90277C395.32185 163.54745 399.89282 168.17201 417.86723 161.24396C427.65689 156.92423 438.88464 154.17967 450.99706 152.21027L470.94647 149.22062L480.04084 170.01308C487.56774 188.46890 488.88877 191.68872 487.27355 207.93295C484.02819 228.21462 479.21297 235.56380 462.21859 239.80439C442.42060 245.69244 408.45363 260.48942 400.51185 267.73711C391.92456 276.56202 375.95036 271.13487 368.59427 257.75617C362.88818 247.56665 359.48078 236.57784 358.14578 223.19346C356.42751 209.84026 354.90226 178.36361 352.83103 127.26547L347.08840 -10.77882C346.07802 -41.32231 346.02015 -68.00920 346.35289 -91.61371C347.23190 -133.33256 347.18726 -135.69035 339.74338 -151.25581C331.49087 -168.17556 328.89447 -185.79291 332.89967 -202.77822C332.98229 -209.04021 336.86533 -214.30796 342.59230 -218.27027C348.56590 -221.48472 358.43442 -225.23376 373.58213 -228.88177C424.17492 -242.34069 450.84452 -250.10479 453.16111 -253.56797ZM493.06960 -237.20386C498.75436 -240.12135 527.93307 -244.06236 578.65556 -247.31836C628.88820 -250.40879 663.30755 -248.94121 682.33695 -244.35650C698.68686 -239.60683 708.32451 -235.55178 710.83283 -232.26318C712.83725 -229.79560 712.79391 -220.71562 710.20214 -205.84680C708.11143 -190.97913 708.51700 -178.60036 710.32164 -168.70327C712.49836 -158.80665 712.86691 -152.20470 712.44714 -148.07576C712.43532 -145.59940 698.03293 -143.87077 669.33231 -143.52221C641.37361 -143.76905 626.64156 -140.89810 625.38368 -136.75271C623.30254 -132.57615 623.01260 -88.97246 623.05841 -5.05593C624.43324 110.91844 624.31086 187.44143 623.15363 223.65028C621.91956 259.85703 618.68044 283.71999 613.06370 295.24101C610.38893 300.99784 607.71826 305.10861 605.32171 305.93091C602.39513 306.75274 595.99607 307.57428 586.36978 307.57428C576.70489 307.57428 570.51262 306.75518 568.08754 305.93646C565.93100 305.11804 563.77822 301.84457 561.90847 296.11690C557.39419 285.48590 557.66485 227.40655 560.02182 120.22074C560.64211 68.64916 561.69719 21.97539 562.18198 -19.75969C562.54818 -73.76980 562.84127 -104.04819 564.43148 -110.66948C565.55485 -118.08595 563.66655 -123.72681 559.44038 -125.98588C554.16327 -128.16846 543.64573 -129.25855 527.39676 -129.17201C509.36034 -129.70143 497.27482 -131.31667 492.65760 -135.05796C488.49668 -137.99684 486.48628 -145.14174 487.38119 -157.35429C488.59835 -167.97163 487.42546 -179.22376 484.11720 -192.71379C477.93658 -217.25856 480.53120 -229.62116 493.06960 -237.20386ZM880.83011 -246.63923C886.09419 -248.77704 891.94846 -250.04393 897.13487 -250.52348C899.50484 -251.18257 902.90274 -246.86677 906.68988 -237.62434C910.03831 -228.41520 914.20242 -215.89072 917.46461 -200.17212C917.89568 -197.69870 927.35241 -164.47647 944.97620 -102.34012C962.87359 -40.43608 972.23379 -4.30856 973.37950 5.47039C976.84926 31.47183 981.66605 44.62846 986.92960 44.88053C990.11844 45.04092 993.05431 40.34449 995.20823 31.61118C997.55746 22.88626 1003.21736 -5.74044 1013.66657 -53.98247C1019.69022 -84.76596 1024.65961 -108.35081 1028.68976 -124.79219C1035.45890 -156.06276 1044.53789 -191.76785 1048.77109 -203.21614C1051.50635 -208.44844 1054.28967 -214.46677 1058.24859 -219.52909C1066.52456 -229.54745 1071.15257 -228.91706 1082.88306 -230.43858C1090.52306 -230.90859 1096.12446 -227.71602 1099.49208 -220.92473C1102.23393 -216.58920 1104.03244 -210.04208 1104.59655 -201.32669C1105.16043 -192.61428 1105.12354 -169.09444 1105.45719 -131.38635C1105.03492 -48.29738 1107.78030 31.12514 1112.39121 106.60509C1113.97330 123.09926 1115.92159 134.16405 1118.70556 141.31065C1121.37110 149.26213 1122.91541 166.48714 1123.28688 193.77417C1123.23437 213.26463 1122.38179 224.94866 1122.01501 230.39154C1121.41199 235.83947 1119.57306 241.25980 1116.36700 246.66235C1109.42395 256.71220 1108.52876 258.27073 1097.80631 252.61600C1088.12362 248.53010 1080.94409 240.53133 1076.34711 230.18551C1065.96087 207.01351 1063.63249 160.19766 1063.36836 87.26491C1063.18759 30.17165 1061.82794 0.73120 1059.00812 -0.27897C1057.30833 -0.39371 1055.71115 5.03748 1052.87684 15.96231C1051.45749 20.63562 1050.02350 26.90245 1048.76089 33.96897C1044.52152 53.60528 1039.23846 74.80082 1032.33841 97.63395C1024.24396 126.84211 1019.24371 153.88850 1016.88541 180.23441C1015.15962 206.62464 1004.44622 228.89095 993.85136 228.72768C988.91221 228.64751 983.47576 220.50655 977.90880 204.26650C971.14847 188.80024 960.64621 157.01453 946.41915 108.80519C930.95251 55.45028 921.98479 28.25106 919.96739 28.18694C917.75384 28.09155 916.36015 47.60318 915.69352 86.70867C914.65499 141.29517 913.58096 178.77508 912.44052 197.51207C911.51241 234.18930 910.60235 247.23052 910.57811 251.30780C907.73547 261.07797 884.36467 251.94723 873.08562 229.76110C866.73270 216.60075 862.74468 123.90444 861.07599 -49.19669L860.51661 -81.21563C859.22586 -161.67630 860.46561 -209.20411 861.66736 -223.09354C862.87905 -236.97965 868.45485 -244.06443 877.09379 -246.03919C878.63688 -246.76855 880.77640 -246.63923 880.83011 -246.63923ZM1230.17548 -215.12603C1232.04441 -217.69427 1256.55092 -212.46293 1264.39849 -206.71149C1270.28243 -202.15535 1270.28243 -193.32887 1266.66017 -190.62522C1264.38831 -189.74080 1262.53448 -183.56965 1261.12900 -172.83414C1257.95996 -143.98321 1248.21150 -132.72726 1225.46516 -130.49353C1211.98146 -129.19107 1199.84159 -129.04995 1189.17526 -128.55037C1164.91822 -128.56617 1160.94731 -122.23765 1162.42790 -69.63045C1162.93559 -24.12586 1163.43744 -23.29906 1183.47659 -17.11848C1198.84182 -12.18786 1222.57777 19.47655 1222.54102 34.52082C1222.52448 41.29074 1220.83664 46.38511 1217.41150 49.01404C1213.72864 52.39893 1204.63398 55.98367 1189.49316 61.38264C1173.09291 66.80914 1163.29317 72.11557 1160.72184 75.76249C1157.33728 80.12700 1156.82467 90.12176 1158.72812 104.92241C1161.11269 119.70108 1161.96057 132.84353 1161.91503 144.38961C1161.98176 168.26357 1166.61367 173.10214 1183.87583 167.82394C1194.21242 164.55652 1205.34127 162.90809 1217.39026 162.10330L1237.39174 161.10588L1245.68445 181.01804C1253.63948 198.54185 1254.10391 201.52963 1251.82178 216.26925C1248.56643 234.71875 1243.44505 241.25044 1226.22661 244.49894C1205.75612 249.26252 1171.76663 262.32338 1163.88755 269.12055C1154.68378 277.49060 1139.27068 271.90606 1132.48558 258.62142C1127.11407 248.41633 1123.76143 237.44505 1123.18829 224.17649C1121.51490 210.88400 1120.95810 179.67118 1120.52739 128.94658L1118.97170 -8.57462C1118.91720 -39.03376 1119.34879 -65.54315 1120.64225 -88.82168C1122.59753 -129.94790 1122.60905 -132.28759 1115.53767 -149.64494C1107.90070 -168.70054 1106.01204 -186.99726 1110.32239 -202.83408C1111.84030 -208.87144 1114.84130 -213.11149 1121.25466 -215.23141C1126.74184 -216.69855 1136.56420 -217.42126 1151.20446 -216.46809C1202.14757 -213.67844 1228.34321 -212.54149 1230.17548 -215.12603Z" fill="rgb(255,255,255)" fill-opacity="1.00" filter="url(#blur-2)" transform="matrix(0.995671 -0.09295 0.09295 0.995671 1940.185661 600.077185) translate(0.00598401219895095 51.77158288027351) translate(-7.244913585685436 -0.6763451365212431)"></path>
      </g><path d="M-1261.27825 -407.72668C-1256.26828 -412.92778 -1250.23768 -412.30306 -1242.90497 -404.75719C-1235.94143 -397.53813 -1225.75452 -381.48894 -1213.00758 -359.33086C-1193.06752 -324.10876 -1185.91482 -309.81131 -1166.93630 -255.58634C-1139.22377 -184.55155 -1127.97012 -139.52376 -1120.83451 -74.49432C-1115.06913 -22.33572 -1115.76721 10.46612 -1124.62645 56.68978C-1138.18510 126.12847 -1164.82916 184.44659 -1193.60073 202.24461C-1200.49193 206.59532 -1205.80576 216.01689 -1209.18769 230.59891C-1213.34895 249.16953 -1216.71524 252.99981 -1228.27491 259.52791C-1246.27375 270.03095 -1253.67715 263.69410 -1262.54327 234.60558C-1270.90989 206.17198 -1271.46727 181.24644 -1263.47945 161.42569C-1260.12457 152.55278 -1257.94407 141.55307 -1257.17445 128.30909C-1256.62804 115.03503 -1255.31599 76.27421 -1253.76386 11.96036C-1251.09121 -103.15838 -1249.46768 -171.23990 -1248.84712 -194.59683L-1246.82008 -268.55443L-1254.88194 -295.15628C-1262.43340 -320.88269 -1264.22854 -342.72713 -1265.66793 -385.37309C-1265.77278 -394.85801 -1265.01469 -402.75445 -1261.27825 -407.72668ZM-1212.29118 73.99267C-1212.40296 92.79797 -1210.93690 101.92111 -1207.87350 102.42508C-1204.77716 103.90526 -1197.50771 93.28394 -1187.48872 70.67165C-1167.09450 29.34043 -1160.95907 5.90616 -1159.85503 -38.53305C-1158.45320 -88.51451 -1164.38129 -119.90085 -1188.85661 -187.53321C-1197.05216 -210.36781 -1202.50871 -217.56634 -1205.24632 -208.85830C-1206.03010 -206.20002 -1206.55567 -164.89972 -1206.42800 -83.85490C-1206.26463 -3.86216 -1206.81051 38.47211 -1209.03131 42.92119C-1211.33345 47.43665 -1212.19116 57.16687 -1212.29118 73.99267Z" fill="rgb(255,255,255)" fill-opacity="1.00" transform="matrix(0.995671 -0.09295 0.09295 0.995671 1940.185661 600.077185) translate(0.00598401219895095 51.77158288027351)"></path><path d="M-1032.23551 -278.14865C-1017.67321 -279.44235 -1002.87498 -273.87719 -988.17920 -260.18474C-977.80265 -250.97937 -968.92102 -243.31120 -960.52209 -236.75328C-931.70008 -216.17035 -902.23028 -165.83144 -892.53514 -120.07668C-884.03051 -81.40574 -883.02705 -58.72463 -886.38500 -12.39378C-888.23602 11.25065 -889.82901 31.93283 -890.69375 51.22330C-891.44975 59.59716 -892.66608 68.76934 -895.75739 78.46719C-898.23888 88.24007 -905.46877 110.79581 -916.32987 145.84974C-929.87527 189.27406 -954.88408 237.93009 -973.50127 254.42350C-983.71696 264.06559 -989.21221 265.57755 -1011.48367 264.05640C-1042.16513 263.06852 -1064.45624 248.17098 -1079.49085 219.77635C-1094.26552 189.83103 -1114.41055 108.15793 -1116.70677 71.95637C-1117.79019 51.49697 -1120.84400 31.50690 -1124.88234 12.21852C-1131.79452 -16.29800 -1131.80491 -19.09000 -1129.03299 -56.45794C-1124.71122 -115.30814 -1102.30350 -192.53318 -1072.24713 -245.79254C-1058.45864 -270.63400 -1049.42498 -276.23660 -1032.23551 -278.14865ZM-1070.37870 -36.25949C-1069.40521 16.27284 -1069.16912 24.33931 -1061.07648 60.35741C-1055.66743 85.89821 -1048.92861 106.21615 -1041.36732 122.12195L-1030.50066 144.24175L-1010.26191 146.70685C-996.68986 148.19427 -985.71901 145.29982 -977.21052 138.79218C-962.58855 126.58113 -945.70286 94.66167 -936.12924 59.92608C-923.97546 16.63402 -929.00976 -34.68623 -950.35369 -96.48783C-957.43078 -115.60563 -970.93960 -138.54101 -985.01232 -152.23918C-998.93367 -166.11650 -1020.30443 -170.21311 -1032.03826 -163.24330C-1043.59215 -156.05372 -1063.54679 -123.45900 -1068.05040 -106.36788C-1070.24289 -97.24829 -1071.01838 -74.51270 -1070.37870 -36.25949Z" fill="rgb(255,255,255)" fill-opacity="1.00" transform="matrix(0.995671 -0.09295 0.09295 0.995671 1940.185661 600.077185) translate(0.00598401219895095 51.77158288027351)"></path><path d="M-891.79603 -199.54121C-887.37426 -208.03764 -872.07047 -201.94314 -863.25482 -189.86700C-856.51132 -180.85307 -843.25376 -150.42072 -822.64987 -100.72574C-817.06120 -87.50227 -802.92286 -57.64975 -780.46230 -11.39891C-765.89901 15.12109 -759.73374 19.73180 -760.23373 1.78650C-760.68658 -9.02675 -760.89372 -21.90128 -759.18247 -35.85771C-757.82366 -51.21408 -758.22532 -65.53697 -760.54147 -78.87633C-762.87368 -92.96464 -763.27367 -107.32087 -761.78403 -123.32890C-758.57637 -164.39612 -757.59912 -164.12276 -735.95806 -157.49495L-716.54268 -151.71060L-715.03845 -136.10682C-712.84712 -126.55367 -712.61866 -119.58533 -713.55659 -116.33723C-716.35063 -109.36544 -714.91406 -28.49298 -708.74707 126.09394C-706.35331 207.78796 -705.24996 251.72638 -707.88191 257.92600C-709.00245 262.09613 -712.50819 260.62433 -717.37533 254.13705C-721.48395 249.09934 -728.18260 234.74001 -738.47885 212.30173C-748.66999 187.43636 -758.40150 166.63704 -767.83473 149.26737C-777.44564 128.70130 -782.97588 114.31631 -784.97747 106.05609C-786.47026 97.16997 -790.62242 86.45132 -796.98773 73.80125C-802.39770 61.97166 -808.44858 47.76794 -814.72612 32.67974C-825.26210 4.77826 -832.39009 -9.35481 -837.11640 -10.30820C-839.33360 -10.78625 -839.65209 19.97165 -836.51479 82.03994C-834.51493 143.26138 -831.44227 180.32800 -828.98029 192.54788C-824.32770 219.08721 -826.94832 232.39363 -837.63871 246.26471C-844.81340 254.33499 -852.02324 258.67069 -859.55321 258.42711C-867.48553 258.16749 -871.11175 257.27454 -871.60140 256.47764C-902.20570 206.49473 -883.46787 44.75377 -891.23143 -101.88171C-893.93669 -162.35863 -894.22958 -194.99364 -891.79603 -199.54121Z" fill="rgb(255,255,255)" fill-opacity="1.00" transform="matrix(0.995671 -0.09295 0.09295 0.995671 1940.185661 600.077185) translate(0.00598401219895095 51.77158288027351)"></path><path d="M-716.31609 -161.35168C-710.37363 -161.87512 -683.56993 -156.50223 -634.09009 -145.11389C-583.61234 -135.63099 -549.33918 -127.70621 -531.96457 -121.12987C-514.55384 -114.77397 -504.93500 -110.30025 -502.44130 -107.43924C-499.98032 -105.21978 -500.10383 -98.27908 -502.05055 -87.13277C-503.98339 -75.97353 -503.24719 -66.38394 -500.95273 -58.51434C-498.66526 -50.65759 -498.02126 -45.52573 -497.96182 -42.35607C-498.47525 -40.51297 -513.06132 -40.87895 -540.78822 -44.28292C-568.54305 -48.73488 -582.82559 -48.88817 -584.61354 -45.89467C-586.33668 -42.89753 -585.74330 -8.21349 -582.75120 58.75307C-578.75876 151.20163 -577.01049 212.06025 -577.11800 240.82289C-577.24868 269.60057 -580.00887 288.56172 -585.43479 297.71551C-587.73913 302.31021 -590.60463 305.59797 -592.73343 306.25520C-595.66045 306.91397 -602.05559 307.57428 -611.90608 307.57428C-621.71431 307.57428 -627.80754 306.90378 -630.19878 306.23158C-632.32377 305.55820 -635.02669 302.86412 -636.72966 298.14677C-640.13274 289.36010 -641.94856 241.45507 -642.34483 153.20958C-643.21913 110.74243 -643.81473 72.43990 -643.80407 38.21667C-644.88155 -6.22734 -644.58258 -30.97055 -643.61189 -36.18026C-642.73341 -42.05726 -644.87637 -47.12379 -649.15273 -49.87185C-653.81055 -52.72759 -664.51082 -56.06090 -680.95326 -59.84818C-699.10999 -64.79169 -710.22971 -69.20352 -714.34894 -73.53445C-718.63463 -77.24082 -720.86641 -83.97729 -720.11212 -94.25822C-719.11922 -103.07080 -720.64778 -113.15975 -723.98143 -125.79123C-731.25703 -149.26865 -728.61247 -159.03442 -716.31609 -161.35168Z" fill="rgb(255,255,255)" fill-opacity="1.00" transform="matrix(0.995671 -0.09295 0.09295 0.995671 1940.185661 600.077185) translate(0.00598401219895095 51.77158288027351)"></path><path d="M-277.05002 -121.52980C-273.04271 -124.72181 -201.99749 -127.10050 -198.57791 -124.30343C-197.45089 -122.54244 -197.77665 -118.15893 -199.85073 -110.51090C-202.22720 -102.22640 -203.14574 -98.42337 -202.88493 -97.82550C-202.99207 -87.87704 -207.04619 -79.48048 -214.77782 -72.08749C-225.42384 -62.10690 -257.31913 -50.69473 -277.49512 -50.10875C-298.24682 -49.79486 -300.53155 -51.62311 -298.14454 -12.88927C-296.23074 20.92672 -293.74902 25.21164 -278.22731 20.08348C-271.41054 17.48800 -264.20696 16.08944 -255.74028 15.21768L-244.09557 13.59666L-241.73133 35.74015C-239.58693 56.06062 -239.97351 58.53250 -246.33296 68.01350C-249.83193 74.28271 -255.63962 78.74665 -264.34852 80.79538C-272.44372 82.17094 -278.37642 85.95397 -282.28230 91.54673C-284.45357 95.87638 -285.90219 100.19822 -286.06348 105.12109C-286.36204 110.04655 -285.64396 123.57943 -283.54136 146.33008C-280.81469 176.46429 -279.72453 199.84769 -278.61336 217.07775L-277.27355 241.69798L-290.47882 262.04590C-299.64248 274.97589 -304.80765 281.74322 -306.25952 281.74358C-308.03536 281.74394 -310.35980 278.05403 -312.75796 270.67363C-317.44656 261.44622 -319.67265 259.60003 -324.97141 260.20876C-328.17944 260.81899 -330.23216 260.81519 -331.33026 258.96838C-331.97844 257.12030 -333.14877 252.81065 -334.74382 244.80507C-336.20090 233.10872 -336.25767 221.41578 -335.39192 208.49739C-332.98627 184.50994 -343.14973 -26.08420 -347.43303 -42.79880C-349.69525 -50.85929 -351.26145 -62.59821 -352.39811 -78.02859L-354.77553 -101.50682L-344.64487 -107.37238C-337.59905 -111.51952 -325.42272 -114.40294 -306.97182 -116.16960C-288.18400 -117.59124 -278.48220 -119.64581 -277.05002 -121.52980Z" fill="rgb(255,255,255)" fill-opacity="1.00" transform="matrix(0.995671 -0.09295 0.09295 0.995671 1940.185661 600.077185) translate(0.00598401219895095 51.77158288027351)"></path><path d="M-144.09238 -121.81742C-127.90418 -129.87681 -111.78859 -133.13454 -96.32045 -130.11341C-85.22326 -128.35139 -75.79232 -126.97468 -66.94252 -126.18841C-36.71045 -125.01604 -6.48743 -98.38177 2.71565 -63.61825C11.03564 -33.63762 11.91405 -14.14342 8.09549 27.88188C6.21136 49.23737 4.74572 67.73784 3.14091 84.90336C2.67281 92.41452 1.15442 100.75909 -1.95764 109.92574C-3.94862 118.99133 -12.18329 140.08448 -23.46655 171.76141C-37.18665 210.00545 -62.79448 251.89396 -81.26516 266.02099C-92.68403 273.97479 -97.24779 275.34421 -119.61604 275.01100C-150.02260 275.37586 -173.04194 265.56980 -188.19815 246.38061C-203.92548 226.69471 -226.20350 173.17598 -229.13403 149.10897C-230.56011 135.52164 -234.06518 122.62916 -238.32654 110.37996C-246.72423 92.71049 -246.71454 90.85821 -244.52470 65.47506C-240.98488 25.21617 -218.26512 -33.43212 -186.42798 -81.22765C-172.39790 -104.49996 -162.29258 -112.55244 -144.09238 -121.81742ZM-182.36425 65.71646C-180.76185 102.47008 -179.95637 108.05407 -171.54694 132.03315C-165.52162 149.30726 -158.07783 162.80664 -150.60877 173.17254L-139.42679 187.88766L-118.40581 186.91193C-104.75352 186.21763 -93.56772 182.44364 -85.29413 176.18781C-70.25087 164.11118 -53.01792 135.29437 -42.79009 104.66474C-30.75533 65.43568 -34.88511 24.38362 -56.81702 -18.08575C-64.00765 -30.59313 -78.01328 -43.16894 -92.96135 -47.93789C-107.95017 -52.74914 -129.88753 -47.26664 -142.58083 -37.52430C-155.18073 -27.96723 -175.75856 2.14800 -180.73559 15.63587C-182.93372 22.67591 -183.10805 38.92012 -182.36425 65.71646Z" fill="rgb(255,255,255)" fill-opacity="1.00" transform="matrix(0.995671 -0.09295 0.09295 0.995671 1940.185661 600.077185) translate(0.00598401219895095 51.77158288027351)"></path><path d="M0.55193 -149.19036C11.22849 -159.65946 66.24341 -161.59531 81.39452 -152.04644C91.23696 -145.18483 107.83046 -123.24182 113.90194 -108.03397C120.17969 -91.98351 133.02926 -47.99260 135.34068 -33.85454C138.33330 -16.85969 132.77643 26.81845 124.87748 48.11909C120.15357 59.44325 114.66341 69.58176 107.33931 78.30602C99.80864 88.41884 96.18644 94.52704 96.31959 97.38673C96.40356 100.92786 103.64018 111.64638 118.63699 131.16925C133.73977 151.73773 141.27166 163.61347 141.24609 165.80577C141.22052 167.99807 138.75505 172.53953 133.40884 179.40964C125.52932 189.31760 125.02694 192.94511 126.95877 205.23249C127.03808 214.62646 126.93136 218.99666 124.58261 219.08980C121.07719 219.94778 111.63584 209.55349 95.79530 188.12402C80.14999 167.09037 71.24297 157.84553 68.78244 159.46226C66.75170 160.37178 65.72866 166.03094 64.88698 175.25465C63.61154 184.46890 63.15461 204.90515 61.63894 235.85909C60.19193 256.96066 59.82897 270.34975 56.78026 276.71451C51.81089 290.08398 36.13146 301.33035 22.70212 302.06580L11.65418 302.78508L9.59771 285.03663C7.78925 272.09556 7.42227 261.87038 8.47072 252.98080C11.44887 222.15383 11.92135 162.10402 9.92396 71.73885C8.61557 26.52084 8.20965 -6.63531 6.29373 -25.88798C4.33827 -45.09164 1.30900 -61.93606 -3.49075 -76.96262C-6.00520 -85.12011 -6.29809 -93.73824 -4.40167 -102.24268C-2.01649 -110.23755 -2.06905 -119.61278 -3.29036 -129.35573C-4.69466 -141.70043 -4.65466 -144.39473 0.55193 -149.19036ZM63.65180 -14.80423C65.00144 29.85369 67.24521 52.69980 69.53503 53.79968C70.74336 54.37326 74.04655 51.06718 78.32420 43.41630C84.99023 29.73549 88.03184 8.73099 86.87352 -18.74747C85.92975 -46.23803 82.40524 -66.15124 73.07604 -77.51696C67.89264 -85.65947 64.88910 -86.44389 63.28558 -81.18449C62.17919 -75.36735 61.87898 -52.92389 63.65180 -14.80423Z" fill="rgb(255,255,255)" fill-opacity="1.00" transform="matrix(0.995671 -0.09295 0.09295 0.995671 1940.185661 600.077185) translate(0.00598401219895095 51.77158288027351)"></path><path d="M213.80413 -211.42780C231.56934 -227.04345 269.40734 -231.96128 287.02952 -220.45002C296.69600 -213.56510 303.94127 -206.98127 307.27218 -198.95919L313.50911 -186.69666L308.84953 -167.36799C304.88956 -151.27220 303.43257 -147.99753 291.39161 -142.40888C282.85695 -138.09478 274.22561 -137.61403 264.48775 -140.74667C254.63051 -143.81061 246.12916 -143.19791 239.53651 -138.34765C217.52008 -124.14826 200.99713 -93.71620 188.36364 -46.29267C185.39338 -33.93069 183.76426 -14.46046 185.05271 11.45450C185.68250 35.83100 185.47931 55.18805 184.48460 68.03113C182.79671 79.99315 184.56688 93.26881 188.18346 108.56141C198.35934 146.64907 218.49771 164.98743 247.57243 163.45700C264.95925 162.61139 266.14909 161.78399 274.96282 145.20673C289.75335 114.28254 288.66679 98.89991 271.36107 94.67793C265.24546 92.81444 258.43676 85.68025 250.55951 71.77470L239.91169 50.66445L246.22093 28.00295C254.02461 -2.51416 261.02054 -5.60426 297.11113 2.33458C304.24518 3.97769 317.12605 5.90974 335.36189 9.82857C351.17908 12.49586 355.10644 21.62231 349.89677 38.54856C347.20751 48.15456 345.54547 56.11728 346.25722 62.36406C346.51488 69.41821 343.43979 80.56928 339.17673 97.34042C334.00501 115.67111 330.79889 133.80395 327.76435 151.93984C317.01984 211.66240 300.88639 243.15782 270.18378 256.08475C244.95447 267.95330 215.11754 257.07558 190.01253 229.96683C161.01470 198.44078 126.27031 95.72796 124.28892 34.43186C123.03647 5.72650 135.25231 -72.32583 144.22505 -95.07751C166.13305 -154.95860 185.53177 -187.00563 213.80413 -211.42780Z" fill="rgb(255,255,255)" fill-opacity="1.00" transform="matrix(0.995671 -0.09295 0.09295 0.995671 1940.185661 600.077185) translate(0.00598401219895095 51.77158288027351)"></path><path d="M453.16111 -253.56797C455.47924 -257.03162 479.53060 -260.25542 487.76209 -256.98185C494.83686 -254.37914 496.20315 -244.77104 490.80714 -240.24836C488.24874 -238.40266 486.24575 -230.93770 485.08518 -218.69264C482.67509 -186.12127 473.44530 -170.81309 450.45981 -161.58430C436.63354 -156.30445 424.62292 -152.77356 413.82440 -149.31891C389.76812 -142.86046 385.86858 -135.30700 389.08686 -81.63607C390.45720 -34.91479 391.61777 -34.21467 411.54437 -31.77072C426.86228 -29.66418 452.03909 -0.77218 452.23841 15.32946C452.21341 22.57520 450.77256 28.27143 447.48680 31.67266C443.90752 35.87605 435.00643 41.12490 419.95000 49.18503C403.65002 57.28105 394.06359 64.18077 391.15320 68.32201C388.81709 73.22111 388.53451 83.57975 390.43871 98.55549C392.96721 113.53559 394.34499 126.99304 394.86432 138.90277C395.32185 163.54745 399.89282 168.17201 417.86723 161.24396C427.65689 156.92423 438.88464 154.17967 450.99706 152.21027L470.94647 149.22062L480.04084 170.01308C487.56774 188.46890 488.88877 191.68872 487.27355 207.93295C484.02819 228.21462 479.21297 235.56380 462.21859 239.80439C442.42060 245.69244 408.45363 260.48942 400.51185 267.73711C391.92456 276.56202 375.95036 271.13487 368.59427 257.75617C362.88818 247.56665 359.48078 236.57784 358.14578 223.19346C356.42751 209.84026 354.90226 178.36361 352.83103 127.26547L347.08840 -10.77882C346.07802 -41.32231 346.02015 -68.00920 346.35289 -91.61371C347.23190 -133.33256 347.18726 -135.69035 339.74338 -151.25581C331.49087 -168.17556 328.89447 -185.79291 332.89967 -202.77822C332.98229 -209.04021 336.86533 -214.30796 342.59230 -218.27027C348.56590 -221.48472 358.43442 -225.23376 373.58213 -228.88177C424.17492 -242.34069 450.84452 -250.10479 453.16111 -253.56797Z" fill="rgb(255,255,255)" fill-opacity="1.00" transform="matrix(0.995671 -0.09295 0.09295 0.995671 1940.185661 600.077185) translate(0.00598401219895095 51.77158288027351)"></path><path d="M493.06960 -237.20386C498.75436 -240.12135 527.93307 -244.06236 578.65556 -247.31836C628.88820 -250.40879 663.30755 -248.94121 682.33695 -244.35650C698.68686 -239.60683 708.32451 -235.55178 710.83283 -232.26318C712.83725 -229.79560 712.79391 -220.71562 710.20214 -205.84680C708.11143 -190.97913 708.51700 -178.60036 710.32164 -168.70327C712.49836 -158.80665 712.86691 -152.20470 712.44714 -148.07576C712.43532 -145.59940 698.03293 -143.87077 669.33231 -143.52221C641.37361 -143.76905 626.64156 -140.89810 625.38368 -136.75271C623.30254 -132.57615 623.01260 -88.97246 623.05841 -5.05593C624.43324 110.91844 624.31086 187.44143 623.15363 223.65028C621.91956 259.85703 618.68044 283.71999 613.06370 295.24101C610.38893 300.99784 607.71826 305.10861 605.32171 305.93091C602.39513 306.75274 595.99607 307.57428 586.36978 307.57428C576.70489 307.57428 570.51262 306.75518 568.08754 305.93646C565.93100 305.11804 563.77822 301.84457 561.90847 296.11690C557.39419 285.48590 557.66485 227.40655 560.02182 120.22074C560.64211 68.64916 561.69719 21.97539 562.18198 -19.75969C562.54818 -73.76980 562.84127 -104.04819 564.43148 -110.66948C565.55485 -118.08595 563.66655 -123.72681 559.44038 -125.98588C554.16327 -128.16846 543.64573 -129.25855 527.39676 -129.17201C509.36034 -129.70143 497.27482 -131.31667 492.65760 -135.05796C488.49668 -137.99684 486.48628 -145.14174 487.38119 -157.35429C488.59835 -167.97163 487.42546 -179.22376 484.11720 -192.71379C477.93658 -217.25856 480.53120 -229.62116 493.06960 -237.20386Z" fill="rgb(255,255,255)" fill-opacity="1.00" transform="matrix(0.995671 -0.09295 0.09295 0.995671 1940.185661 600.077185) translate(0.00598401219895095 51.77158288027351)"></path><path d="M880.83011 -246.63923C886.09419 -248.77704 891.94846 -250.04393 897.13487 -250.52348C899.50484 -251.18257 902.90274 -246.86677 906.68988 -237.62434C910.03831 -228.41520 914.20242 -215.89072 917.46461 -200.17212C917.89568 -197.69870 927.35241 -164.47647 944.97620 -102.34012C962.87359 -40.43608 972.23379 -4.30856 973.37950 5.47039C976.84926 31.47183 981.66605 44.62846 986.92960 44.88053C990.11844 45.04092 993.05431 40.34449 995.20823 31.61118C997.55746 22.88626 1003.21736 -5.74044 1013.66657 -53.98247C1019.69022 -84.76596 1024.65961 -108.35081 1028.68976 -124.79219C1035.45890 -156.06276 1044.53789 -191.76785 1048.77109 -203.21614C1051.50635 -208.44844 1054.28967 -214.46677 1058.24859 -219.52909C1066.52456 -229.54745 1071.15257 -228.91706 1082.88306 -230.43858C1090.52306 -230.90859 1096.12446 -227.71602 1099.49208 -220.92473C1102.23393 -216.58920 1104.03244 -210.04208 1104.59655 -201.32669C1105.16043 -192.61428 1105.12354 -169.09444 1105.45719 -131.38635C1105.03492 -48.29738 1107.78030 31.12514 1112.39121 106.60509C1113.97330 123.09926 1115.92159 134.16405 1118.70556 141.31065C1121.37110 149.26213 1122.91541 166.48714 1123.28688 193.77417C1123.23437 213.26463 1122.38179 224.94866 1122.01501 230.39154C1121.41199 235.83947 1119.57306 241.25980 1116.36700 246.66235C1109.42395 256.71220 1108.52876 258.27073 1097.80631 252.61600C1088.12362 248.53010 1080.94409 240.53133 1076.34711 230.18551C1065.96087 207.01351 1063.63249 160.19766 1063.36836 87.26491C1063.18759 30.17165 1061.82794 0.73120 1059.00812 -0.27897C1057.30833 -0.39371 1055.71115 5.03748 1052.87684 15.96231C1051.45749 20.63562 1050.02350 26.90245 1048.76089 33.96897C1044.52152 53.60528 1039.23846 74.80082 1032.33841 97.63395C1024.24396 126.84211 1019.24371 153.88850 1016.88541 180.23441C1015.15962 206.62464 1004.44622 228.89095 993.85136 228.72768C988.91221 228.64751 983.47576 220.50655 977.90880 204.26650C971.14847 188.80024 960.64621 157.01453 946.41915 108.80519C930.95251 55.45028 921.98479 28.25106 919.96739 28.18694C917.75384 28.09155 916.36015 47.60318 915.69352 86.70867C914.65499 141.29517 913.58096 178.77508 912.44052 197.51207C911.51241 234.18930 910.60235 247.23052 910.57811 251.30780C907.73547 261.07797 884.36467 251.94723 873.08562 229.76110C866.73270 216.60075 862.74468 123.90444 861.07599 -49.19669L860.51661 -81.21563C859.22586 -161.67630 860.46561 -209.20411 861.66736 -223.09354C862.87905 -236.97965 868.45485 -244.06443 877.09379 -246.03919C878.63688 -246.76855 880.77640 -246.63923 880.83011 -246.63923Z" fill="rgb(255,255,255)" fill-opacity="1.00" transform="matrix(0.995671 -0.09295 0.09295 0.995671 1940.185661 600.077185) translate(0.00598401219895095 51.77158288027351)"></path><path d="M1230.17548 -215.12603C1232.04441 -217.69427 1256.55092 -212.46293 1264.39849 -206.71149C1270.28243 -202.15535 1270.28243 -193.32887 1266.66017 -190.62522C1264.38831 -189.74080 1262.53448 -183.56965 1261.12900 -172.83414C1257.95996 -143.98321 1248.21150 -132.72726 1225.46516 -130.49353C1211.98146 -129.19107 1199.84159 -129.04995 1189.17526 -128.55037C1164.91822 -128.56617 1160.94731 -122.23765 1162.42790 -69.63045C1162.93559 -24.12586 1163.43744 -23.29906 1183.47659 -17.11848C1198.84182 -12.18786 1222.57777 19.47655 1222.54102 34.52082C1222.52448 41.29074 1220.83664 46.38511 1217.41150 49.01404C1213.72864 52.39893 1204.63398 55.98367 1189.49316 61.38264C1173.09291 66.80914 1163.29317 72.11557 1160.72184 75.76249C1157.33728 80.12700 1156.82467 90.12176 1158.72812 104.92241C1161.11269 119.70108 1161.96057 132.84353 1161.91503 144.38961C1161.98176 168.26357 1166.61367 173.10214 1183.87583 167.82394C1194.21242 164.55652 1205.34127 162.90809 1217.39026 162.10330L1237.39174 161.10588L1245.68445 181.01804C1253.63948 198.54185 1254.10391 201.52963 1251.82178 216.26925C1248.56643 234.71875 1243.44505 241.25044 1226.22661 244.49894C1205.75612 249.26252 1171.76663 262.32338 1163.88755 269.12055C1154.68378 277.49060 1139.27068 271.90606 1132.48558 258.62142C1127.11407 248.41633 1123.76143 237.44505 1123.18829 224.17649C1121.51490 210.88400 1120.95810 179.67118 1120.52739 128.94658L1118.97170 -8.57462C1118.91720 -39.03376 1119.34879 -65.54315 1120.64225 -88.82168C1122.59753 -129.94790 1122.60905 -132.28759 1115.53767 -149.64494C1107.90070 -168.70054 1106.01204 -186.99726 1110.32239 -202.83408C1111.84030 -208.87144 1114.84130 -213.11149 1121.25466 -215.23141C1126.74184 -216.69855 1136.56420 -217.42126 1151.20446 -216.46809C1202.14757 -213.67844 1228.34321 -212.54149 1230.17548 -215.12603Z" fill="rgb(255,255,255)" fill-opacity="1.00" transform="matrix(0.995671 -0.09295 0.09295 0.995671 1940.185661 600.077185) translate(0.00598401219895095 51.77158288027351)"></path></g></g>

  </svg>