<svg xmlns="http://www.w3.org/2000/svg" xmlns:xlink="http://www.w3.org/1999/xlink" width="3877px" height="1442px" viewBox="0 0 3876.851592507681 1442.0522281149624">
    <g style="" id="e4f71374-6268-4dd0-a237-4bb865f0d4e1">
<g style=""><g>
        <defs transform="matrix(0.995671 -0.09295 0.09295 0.995671 1938.425796 613.569857) translate(-9.094947017729282e-13 65.04226688027592) translate(-7.244913585685436 -0.6763451365212431)">
          <filter id="blur-85" x="-21.1114%" y="-23.1317%" width="142.2228%" height="146.2634%" color-interpolation-filters="sRGB">
            <feGaussianBlur stdDeviation="10.5"></feGaussianBlur>
        </filter>
        </defs>
        <path d="M-1247.33882 -411.07172C-1226.17089 -409.99682 -1118.99571 -335.37285 -1090.22418 -304.66516C-1070.55740 -284.39291 -1038.43464 -239.74602 -1027.56927 -215.83369C-1014.77755 -190.77172 -990.31120 -128.99352 -986.37901 -111.15754C-980.60956 -89.75659 -993.96472 -43.87391 -1011.68659 -24.27527C-1021.17204 -13.51916 -1033.27834 -4.96809 -1049.61983 1.16217C-1065.82264 9.44615 -1073.19819 14.97330 -1073.16364 18.54457C-1072.91967 23.00866 -1058.34540 39.93322 -1027.55333 70.28498C-997.85597 100.08550 -982.85901 116.20192 -982.81444 118.71204C-982.66372 121.26786 -988.34254 125.62288 -999.69720 131.94341C-1016.43575 141.24952 -1017.51869 145.48114 -1015.99282 160.11599C-1014.77284 171.38584 -1015.73566 176.40976 -1020.48745 176.09172C-1027.32283 176.43697 -1047.22794 161.76257 -1079.10241 131.15235C-1110.57029 99.16326 -1129.23445 83.57472 -1134.08153 84.73211C-1138.08864 85.05824 -1140.84143 92.22753 -1143.66279 104.03358C-1146.49082 115.93389 -1149.23617 142.98273 -1153.93906 184.22904C-1156.81824 212.56501 -1161.68882 230.45074 -1167.49886 238.86145C-1179.35666 256.85575 -1213.20693 272.10745 -1242.05947 272.92484L-1265.99767 273.80769L-1269.58230 246.86607C-1271.28547 227.11069 -1271.06522 211.55620 -1267.95374 198.26799C-1258.56131 152.59675 -1252.66262 63.00791 -1248.31960 -72.34609C-1245.77033 -140.18760 -1245.24069 -190.16291 -1246.64381 -220.43845C-1249.07599 -251.30716 -1253.32592 -280.04168 -1261.03083 -308.69280C-1264.15382 -323.86815 -1263.96111 -337.35651 -1260.49173 -348.00785C-1255.92381 -356.96343 -1254.87659 -370.91517 -1256.40856 -387.35961C-1257.04397 -407.48833 -1256.98908 -411.61739 -1247.33882 -411.07172ZM-1133.97815 -147.73662C-1133.17489 -87.70349 -1130.21553 -56.25077 -1125.59799 -53.20585C-1122.70668 -51.55009 -1116.19279 -53.57717 -1107.81305 -60.60159C-1092.59953 -72.97124 -1085.42046 -97.10133 -1085.98409 -132.31749C-1086.44994 -167.49501 -1094.03680 -196.28010 -1109.39077 -219.29337C-1120.75693 -235.69462 -1127.33951 -240.18013 -1129.92955 -234.73246C-1132.67149 -228.37704 -1134.39326 -199.22178 -1133.97815 -147.73662ZM-770.15597 -221.54970C-766.36236 -223.25405 -714.39213 -208.96402 -697.20370 -200.91885C-682.42799 -194.39454 -680.63869 -185.78555 -691.71810 -185.12298C-696.73895 -185.01513 -700.10790 -179.67654 -702.58916 -169.96762C-708.07200 -143.68163 -727.92729 -135.86392 -775.87531 -141.38683C-804.26247 -145.26834 -829.25466 -149.89540 -851.48349 -153.94267C-901.41086 -164.97809 -909.03606 -160.27040 -904.11851 -105.50710C-901.04482 -58.55752 -900.49548 -57.56668 -858.28846 -44.30478C-825.96504 -34.43423 -774.62380 3.03546 -773.85829 17.59107C-773.55116 24.16049 -777.16185 28.72021 -784.17196 30.44722C-791.86054 32.92602 -811.43171 34.29702 -842.29119 36.07297C-876.43133 37.42430 -896.59992 40.32857 -902.52054 43.30245C-909.21932 46.92421 -909.63165 57.14061 -905.17660 72.81733C-899.75309 88.55177 -897.10503 102.17670 -896.68471 114.04542C-895.99354 138.50611 -885.86763 144.13703 -849.69200 141.34648C-828.16759 139.52336 -804.31500 139.48789 -778.93097 140.26197L-736.61511 141.69908L-717.44928 161.45153C-699.46729 178.65522 -698.42475 181.48252 -703.00738 195.19074C-708.91890 212.37917 -719.56385 218.30417 -756.06367 220.52536C-799.51907 224.04687 -871.60183 235.25933 -888.32236 241.80814C-906.53867 250.04135 -940.68713 243.61832 -955.86269 229.24833C-967.06202 218.07110 -974.29445 206.10643 -976.71864 191.82556C-980.15301 177.41496 -982.27755 143.85245 -984.72244 89.29036L-991.40165 -59.14065C-992.41468 -92.00426 -992.23906 -120.39874 -990.07647 -144.80351C-987.64368 -188.09043 -987.68492 -190.59911 -1002.23415 -213.33381C-1017.89722 -238.63566 -1022.62489 -260.09180 -1013.80732 -274.30516C-1011.08616 -279.94054 -1005.07643 -282.49982 -992.80493 -280.76200C-981.87705 -278.76723 -961.74300 -273.08607 -932.26163 -263.14244C-828.00388 -232.67586 -774.17586 -219.91087 -770.15597 -221.54970ZM-488.86941 -152.83709C-483.45156 -155.29738 -450.28259 -146.48503 -441.31463 -139.98016C-431.26842 -133.45155 -420.85982 -76.02550 -410.88020 30.77900C-401.86589 117.28734 -406.63326 148.82407 -430.28519 178.12386C-452.39235 207.03109 -502.68525 233.27306 -549.29302 239.57450C-581.77600 244.24370 -607.94435 237.15464 -641.38274 212.80206L-670.34148 190.54828L-662.29408 175.91746C-646.85774 149.04467 -627.19664 143.64804 -601.64854 157.88013C-594.37459 161.57244 -581.21917 164.25568 -562.51590 165.17247C-534.48464 166.45500 -531.30192 165.32805 -513.22454 152.65232C-489.08408 135.95984 -486.81430 129.09221 -493.10533 88.25257C-495.91461 69.68256 -500.92087 38.88322 -506.49593 -4.15101C-506.56182 -7.33387 -506.64090 -11.15330 -507.92181 -15.71501C-515.52833 -82.09217 -514.85271 -81.35463 -602.00339 -93.36436L-615.92849 -95.73884C-655.92216 -103.14679 -679.56413 -108.53446 -687.63717 -110.91132C-696.67620 -113.48121 -702.81090 -116.92603 -705.97208 -122.45774C-711.17532 -129.86043 -711.46943 -140.32461 -707.53035 -153.94413C-704.25445 -167.62586 -701.71725 -174.57313 -699.99087 -175.51976C-698.02506 -176.40226 -680.34861 -174.13222 -647.56692 -168.57956C-544.98784 -155.31708 -491.57569 -151.29367 -488.86941 -152.83709ZM-185.20746 -153.71510C-181.44100 -156.59791 -127.63557 -164.22160 -110.42238 -163.85112C-95.50806 -163.94146 -93.30807 -156.65478 -104.90083 -151.41408C-109.80972 -149.31323 -113.67057 -142.96182 -116.37428 -132.99599C-122.24065 -106.73915 -142.57441 -92.72134 -192.54243 -82.06322C-221.63423 -76.93288 -248.15545 -73.77264 -270.46179 -71.20834C-324.38304 -67.76695 -332.05106 -62.32936 -326.85028 -20.42453C-324.16005 15.89580 -323.01368 16.51991 -279.24898 19.46109C-245.78942 21.16829 -192.83815 42.46775 -192.49406 54.88209C-192.40604 60.47496 -196.23329 65.02749 -203.24672 67.82521C-211.26184 71.27283 -231.02855 75.68447 -263.02846 82.00465C-298.13366 87.90577 -319.06112 92.81693 -325.04232 95.86087C-332.22656 99.49451 -332.52231 107.49451 -327.65809 119.22185C-322.24026 130.93957 -319.62067 141.40598 -319.22033 150.63410C-318.09787 169.70388 -307.69322 173.40686 -270.88901 168.34035C-249.18299 165.02320 -225.22964 162.78148 -199.43177 160.94327L-155.50231 157.68704L-137.46826 173.37829C-119.75022 187.32809 -118.84850 189.83827 -123.55241 202.72769C-129.73812 218.77376 -140.62911 224.71624 -177.56267 228.47525C-221.21407 233.32040 -293.63560 244.74090 -309.72923 250.28238C-328.86740 257.03651 -363.01280 252.65656 -378.62941 242.09679C-390.65461 233.98666 -397.44711 225.25204 -400.11585 214.68818C-403.68179 204.10004 -406.00175 179.24333 -409.86649 138.82908L-418.04670 29.16964C-419.48397 4.85641 -419.57658 -16.29225 -417.55373 -34.79993C-415.16047 -67.56750 -415.46391 -69.44992 -431.69663 -83.67458C-448.44021 -99.43867 -453.10377 -114.25423 -444.74664 -126.57441C-442.02524 -131.31296 -435.17432 -134.42032 -422.13728 -135.78807C-409.90166 -136.69737 -388.65619 -137.14090 -357.17689 -136.86041C-246.05509 -142.96526 -189.25513 -150.82100 -185.20746 -153.71510ZM100.21407 -210.82868C135.93733 -228.95655 138.47730 -230.29181 155.44037 -224.78835C161.08136 -222.39976 164.82416 -220.29772 166.02182 -216.89257C166.94688 -213.41444 164.96547 -204.90555 162.59952 -190.45753C155.41184 -156.00346 147.73817 -146.46490 109.63457 -129.48269C74.45380 -113.65919 17.59971 -64.33925 -1.26827 -32.83219C-13.51684 -13.83158 -14.09756 -8.37340 -10.50678 17.71379C-0.36487 86.90596 17.90380 119.53695 63.12935 148.35899C80.51697 160.55765 90.00745 169.24842 92.33946 175.51740C95.14384 181.80394 101.83447 186.43457 112.39387 189.55588C139.60383 196.38715 154.78789 210.55811 155.65543 231.05712C156.05635 243.55107 155.38235 250.90890 152.40139 253.14845C148.20147 259.05634 79.45127 253.37581 62.87709 247.29642C19.98882 232.33331 -60.75528 167.18269 -82.35018 129.58250C-106.74983 90.22367 -118.78368 59.93399 -119.58683 38.37425C-121.35019 1.06484 -92.94325 -52.85804 -47.54129 -101.32595C-25.38621 -127.08288 56.44084 -188.97758 100.21407 -210.82868ZM162.84946 -213.25972C175.77702 -218.26421 235.65519 -231.86014 343.21362 -249.95507C450.35579 -264.21452 524.22663 -268.47201 562.76184 -266.21777C598.43016 -263.23132 620.39100 -260.07016 624.68909 -256.94209C629.99265 -254.66528 628.91924 -245.57685 623.49475 -230.58142C618.86670 -215.61565 619.11825 -203.29105 623.33711 -193.56752C627.54522 -183.83199 628.57777 -177.28214 627.76436 -173.14402C626.48424 -170.63547 595.38102 -167.89918 535.62884 -164.97174C476.30492 -161.79863 444.50257 -156.78848 440.55439 -152.44891C437.01212 -148.13567 434.58067 -105.43794 435.04350 -23.68964C434.84134 89.35589 434.37970 163.95530 431.17674 199.28748C428.25309 234.57251 420.49964 257.83963 409.07080 269.06840C402.23541 274.66024 396.51587 278.64638 391.65906 279.44408C385.65916 280.23945 372.48554 281.03292 350.64182 281.03292C329.85544 281.03292 317.11471 280.25384 311.89549 279.47728C306.96386 278.70267 302.03707 275.60426 298.58259 270.18581C291.64190 260.16144 291.93064 205.27719 298.17204 103.70614C300.72329 54.72918 302.16673 10.47705 303.55154 -29.17618C306.30202 -80.66417 308.57762 -109.63567 310.63478 -116.10465C313.67915 -123.43134 309.81262 -128.38907 300.67716 -129.56870C290.54724 -130.58552 267.30274 -128.97000 232.34271 -124.66544C193.33916 -120.02578 169.13420 -118.16773 160.03459 -120.24335C151.15932 -121.58305 147.24884 -127.46500 149.42453 -138.78984C152.17684 -148.79117 150.23114 -158.66408 143.20162 -169.59532C130.40894 -189.32021 135.63911 -201.35028 162.84946 -213.25972ZM862.69584 -290.76369C867.39691 -293.79204 921.50487 -291.05038 938.73180 -285.60119C953.99865 -281.03877 956.15796 -271.11143 943.98702 -268.09347C938.82454 -266.88653 934.86775 -259.87821 931.50629 -247.92741C925.00866 -215.80826 904.14538 -202.44383 854.80894 -197.55030C824.84123 -194.54680 798.35672 -192.79829 774.72826 -190.77727C721.95776 -187.01482 713.86798 -179.56434 717.98391 -123.44628C719.91672 -74.74752 720.86004 -73.92305 764.33548 -69.62436C797.82195 -65.88995 849.56663 -33.49252 849.93103 -17.05684C850.00433 -9.66063 846.09682 -4.00915 839.07942 -0.87132C831.22802 3.06749 810.78020 7.64149 779.01783 14.66153C743.48484 21.85803 722.53380 28.43477 716.48515 32.56821C709.39899 37.53545 708.48747 48.26847 712.58707 63.94092C718.27315 79.61749 720.29748 93.64887 720.30900 106.03094C721.03972 131.62064 731.27243 136.57514 767.78486 130.06418C790.20361 126.06476 813.91066 123.78955 840.27984 122.43296L883.31233 120.61142L901.50405 142.18582C918.72283 161.23769 919.76997 164.51388 914.74810 180.74567C907.81222 201.06587 897.15131 208.30675 860.05224 212.12199C816.30527 217.65066 743.51624 232.33520 726.78973 239.75866C707.85482 248.84209 673.93739 243.09343 658.70959 229.10417C647.86648 218.42026 640.32975 206.91703 637.58652 192.92942C634.67724 178.95257 633.10396 146.03435 631.10625 92.56006L625.12229 -52.14707C624.46402 -84.21118 625.03053 -112.19462 627.34292 -136.93412C630.71218 -180.63743 630.72293 -183.10625 615.05736 -199.85949C598.73807 -218.10454 593.97004 -236.76441 602.70229 -254.39840C605.69000 -261.10106 612.68774 -266.33298 625.79162 -270.14375C637.99461 -273.04412 659.53424 -276.14465 691.07264 -278.40497C801.92934 -285.00623 859.30664 -287.65635 862.69584 -290.76369ZM932.52093 -282.04011C944.89905 -287.51895 960.27715 -288.57995 978.44341 -284.40216C995.39464 -280.23255 1021.06491 -269.34068 1052.58299 -253.53908C1101.16743 -227.22454 1118.35668 -216.11163 1163.57294 -172.73610C1226.53848 -114.51689 1251.41832 -77.40601 1266.28187 -24.60223C1273.29481 16.97384 1273.29481 43.45330 1255.37559 79.90619C1224.44470 135.05580 1164.56906 181.73658 1101.76650 196.25851C1086.67075 199.84816 1075.22213 207.50541 1067.71856 219.25566C1058.62703 234.20273 1051.87022 237.30217 1026.99383 242.65332C988.51357 251.21691 972.23304 246.27997 952.02022 223.45797C932.93170 201.32920 930.87144 181.77454 947.81223 165.79883C955.16940 158.62809 959.72941 149.82227 960.40977 139.30699C961.64409 128.80386 963.45560 98.08258 965.06319 47.13758C967.54759 -44.21850 969.40403 -98.32515 969.70365 -116.92906L972.90641 -175.74452L952.46903 -195.14114C932.98472 -213.63178 927.84414 -230.27765 922.59512 -263.25039C920.74129 -270.72360 923.31394 -277.05443 932.52093 -282.04011ZM1059.48130 93.70443C1059.38808 108.78596 1062.55059 116.03240 1069.63981 116.34188C1076.64244 117.43025 1092.60834 108.67580 1115.80214 90.23782C1160.59766 56.68915 1174.54254 37.82207 1177.83584 2.09583C1181.63043 -38.11210 1167.51956 -63.57188 1111.42018 -117.58639C1092.12969 -135.51479 1079.38778 -140.87160 1073.15026 -133.63539C1071.13640 -131.46916 1070.15877 -98.29513 1071.23499 -33.23933C1072.35849 30.98680 1071.50993 64.96665 1066.44181 68.64834C1061.62136 72.36784 1059.44262 80.19383 1059.48130 93.70443Z" fill="rgb(255,255,255)" fill-opacity="1.00" filter="url(#blur-85)" transform="matrix(0.995671 -0.09295 0.09295 0.995671 1938.425796 613.569857) translate(-9.094947017729282e-13 65.04226688027592) translate(-7.244913585685436 -0.6763451365212431)"></path>
      </g><path d="M-1247.33882 -411.07172C-1226.17089 -409.99682 -1118.99571 -335.37285 -1090.22418 -304.66516C-1070.55740 -284.39291 -1038.43464 -239.74602 -1027.56927 -215.83369C-1014.77755 -190.77172 -990.31120 -128.99352 -986.37901 -111.15754C-980.60956 -89.75659 -993.96472 -43.87391 -1011.68659 -24.27527C-1021.17204 -13.51916 -1033.27834 -4.96809 -1049.61983 1.16217C-1065.82264 9.44615 -1073.19819 14.97330 -1073.16364 18.54457C-1072.91967 23.00866 -1058.34540 39.93322 -1027.55333 70.28498C-997.85597 100.08550 -982.85901 116.20192 -982.81444 118.71204C-982.66372 121.26786 -988.34254 125.62288 -999.69720 131.94341C-1016.43575 141.24952 -1017.51869 145.48114 -1015.99282 160.11599C-1014.77284 171.38584 -1015.73566 176.40976 -1020.48745 176.09172C-1027.32283 176.43697 -1047.22794 161.76257 -1079.10241 131.15235C-1110.57029 99.16326 -1129.23445 83.57472 -1134.08153 84.73211C-1138.08864 85.05824 -1140.84143 92.22753 -1143.66279 104.03358C-1146.49082 115.93389 -1149.23617 142.98273 -1153.93906 184.22904C-1156.81824 212.56501 -1161.68882 230.45074 -1167.49886 238.86145C-1179.35666 256.85575 -1213.20693 272.10745 -1242.05947 272.92484L-1265.99767 273.80769L-1269.58230 246.86607C-1271.28547 227.11069 -1271.06522 211.55620 -1267.95374 198.26799C-1258.56131 152.59675 -1252.66262 63.00791 -1248.31960 -72.34609C-1245.77033 -140.18760 -1245.24069 -190.16291 -1246.64381 -220.43845C-1249.07599 -251.30716 -1253.32592 -280.04168 -1261.03083 -308.69280C-1264.15382 -323.86815 -1263.96111 -337.35651 -1260.49173 -348.00785C-1255.92381 -356.96343 -1254.87659 -370.91517 -1256.40856 -387.35961C-1257.04397 -407.48833 -1256.98908 -411.61739 -1247.33882 -411.07172ZM-1133.97815 -147.73662C-1133.17489 -87.70349 -1130.21553 -56.25077 -1125.59799 -53.20585C-1122.70668 -51.55009 -1116.19279 -53.57717 -1107.81305 -60.60159C-1092.59953 -72.97124 -1085.42046 -97.10133 -1085.98409 -132.31749C-1086.44994 -167.49501 -1094.03680 -196.28010 -1109.39077 -219.29337C-1120.75693 -235.69462 -1127.33951 -240.18013 -1129.92955 -234.73246C-1132.67149 -228.37704 -1134.39326 -199.22178 -1133.97815 -147.73662Z" fill="rgb(255,255,255)" fill-opacity="1.00" transform="matrix(0.995671 -0.09295 0.09295 0.995671 1938.425796 613.569857) translate(-9.094947017729282e-13 65.04226688027592)"></path><path d="M-770.15597 -221.54970C-766.36236 -223.25405 -714.39213 -208.96402 -697.20370 -200.91885C-682.42799 -194.39454 -680.63869 -185.78555 -691.71810 -185.12298C-696.73895 -185.01513 -700.10790 -179.67654 -702.58916 -169.96762C-708.07200 -143.68163 -727.92729 -135.86392 -775.87531 -141.38683C-804.26247 -145.26834 -829.25466 -149.89540 -851.48349 -153.94267C-901.41086 -164.97809 -909.03606 -160.27040 -904.11851 -105.50710C-901.04482 -58.55752 -900.49548 -57.56668 -858.28846 -44.30478C-825.96504 -34.43423 -774.62380 3.03546 -773.85829 17.59107C-773.55116 24.16049 -777.16185 28.72021 -784.17196 30.44722C-791.86054 32.92602 -811.43171 34.29702 -842.29119 36.07297C-876.43133 37.42430 -896.59992 40.32857 -902.52054 43.30245C-909.21932 46.92421 -909.63165 57.14061 -905.17660 72.81733C-899.75309 88.55177 -897.10503 102.17670 -896.68471 114.04542C-895.99354 138.50611 -885.86763 144.13703 -849.69200 141.34648C-828.16759 139.52336 -804.31500 139.48789 -778.93097 140.26197L-736.61511 141.69908L-717.44928 161.45153C-699.46729 178.65522 -698.42475 181.48252 -703.00738 195.19074C-708.91890 212.37917 -719.56385 218.30417 -756.06367 220.52536C-799.51907 224.04687 -871.60183 235.25933 -888.32236 241.80814C-906.53867 250.04135 -940.68713 243.61832 -955.86269 229.24833C-967.06202 218.07110 -974.29445 206.10643 -976.71864 191.82556C-980.15301 177.41496 -982.27755 143.85245 -984.72244 89.29036L-991.40165 -59.14065C-992.41468 -92.00426 -992.23906 -120.39874 -990.07647 -144.80351C-987.64368 -188.09043 -987.68492 -190.59911 -1002.23415 -213.33381C-1017.89722 -238.63566 -1022.62489 -260.09180 -1013.80732 -274.30516C-1011.08616 -279.94054 -1005.07643 -282.49982 -992.80493 -280.76200C-981.87705 -278.76723 -961.74300 -273.08607 -932.26163 -263.14244C-828.00388 -232.67586 -774.17586 -219.91087 -770.15597 -221.54970Z" fill="rgb(255,255,255)" fill-opacity="1.00" transform="matrix(0.995671 -0.09295 0.09295 0.995671 1938.425796 613.569857) translate(-9.094947017729282e-13 65.04226688027592)"></path><path d="M-488.86941 -152.83709C-483.45156 -155.29738 -450.28259 -146.48503 -441.31463 -139.98016C-431.26842 -133.45155 -420.85982 -76.02550 -410.88020 30.77900C-401.86589 117.28734 -406.63326 148.82407 -430.28519 178.12386C-452.39235 207.03109 -502.68525 233.27306 -549.29302 239.57450C-581.77600 244.24370 -607.94435 237.15464 -641.38274 212.80206L-670.34148 190.54828L-662.29408 175.91746C-646.85774 149.04467 -627.19664 143.64804 -601.64854 157.88013C-594.37459 161.57244 -581.21917 164.25568 -562.51590 165.17247C-534.48464 166.45500 -531.30192 165.32805 -513.22454 152.65232C-489.08408 135.95984 -486.81430 129.09221 -493.10533 88.25257C-495.91461 69.68256 -500.92087 38.88322 -506.49593 -4.15101C-506.56182 -7.33387 -506.64090 -11.15330 -507.92181 -15.71501C-515.52833 -82.09217 -514.85271 -81.35463 -602.00339 -93.36436L-615.92849 -95.73884C-655.92216 -103.14679 -679.56413 -108.53446 -687.63717 -110.91132C-696.67620 -113.48121 -702.81090 -116.92603 -705.97208 -122.45774C-711.17532 -129.86043 -711.46943 -140.32461 -707.53035 -153.94413C-704.25445 -167.62586 -701.71725 -174.57313 -699.99087 -175.51976C-698.02506 -176.40226 -680.34861 -174.13222 -647.56692 -168.57956C-544.98784 -155.31708 -491.57569 -151.29367 -488.86941 -152.83709Z" fill="rgb(255,255,255)" fill-opacity="1.00" transform="matrix(0.995671 -0.09295 0.09295 0.995671 1938.425796 613.569857) translate(-9.094947017729282e-13 65.04226688027592)"></path><path d="M-185.20746 -153.71510C-181.44100 -156.59791 -127.63557 -164.22160 -110.42238 -163.85112C-95.50806 -163.94146 -93.30807 -156.65478 -104.90083 -151.41408C-109.80972 -149.31323 -113.67057 -142.96182 -116.37428 -132.99599C-122.24065 -106.73915 -142.57441 -92.72134 -192.54243 -82.06322C-221.63423 -76.93288 -248.15545 -73.77264 -270.46179 -71.20834C-324.38304 -67.76695 -332.05106 -62.32936 -326.85028 -20.42453C-324.16005 15.89580 -323.01368 16.51991 -279.24898 19.46109C-245.78942 21.16829 -192.83815 42.46775 -192.49406 54.88209C-192.40604 60.47496 -196.23329 65.02749 -203.24672 67.82521C-211.26184 71.27283 -231.02855 75.68447 -263.02846 82.00465C-298.13366 87.90577 -319.06112 92.81693 -325.04232 95.86087C-332.22656 99.49451 -332.52231 107.49451 -327.65809 119.22185C-322.24026 130.93957 -319.62067 141.40598 -319.22033 150.63410C-318.09787 169.70388 -307.69322 173.40686 -270.88901 168.34035C-249.18299 165.02320 -225.22964 162.78148 -199.43177 160.94327L-155.50231 157.68704L-137.46826 173.37829C-119.75022 187.32809 -118.84850 189.83827 -123.55241 202.72769C-129.73812 218.77376 -140.62911 224.71624 -177.56267 228.47525C-221.21407 233.32040 -293.63560 244.74090 -309.72923 250.28238C-328.86740 257.03651 -363.01280 252.65656 -378.62941 242.09679C-390.65461 233.98666 -397.44711 225.25204 -400.11585 214.68818C-403.68179 204.10004 -406.00175 179.24333 -409.86649 138.82908L-418.04670 29.16964C-419.48397 4.85641 -419.57658 -16.29225 -417.55373 -34.79993C-415.16047 -67.56750 -415.46391 -69.44992 -431.69663 -83.67458C-448.44021 -99.43867 -453.10377 -114.25423 -444.74664 -126.57441C-442.02524 -131.31296 -435.17432 -134.42032 -422.13728 -135.78807C-409.90166 -136.69737 -388.65619 -137.14090 -357.17689 -136.86041C-246.05509 -142.96526 -189.25513 -150.82100 -185.20746 -153.71510Z" fill="rgb(255,255,255)" fill-opacity="1.00" transform="matrix(0.995671 -0.09295 0.09295 0.995671 1938.425796 613.569857) translate(-9.094947017729282e-13 65.04226688027592)"></path><path d="M100.21407 -210.82868C135.93733 -228.95655 138.47730 -230.29181 155.44037 -224.78835C161.08136 -222.39976 164.82416 -220.29772 166.02182 -216.89257C166.94688 -213.41444 164.96547 -204.90555 162.59952 -190.45753C155.41184 -156.00346 147.73817 -146.46490 109.63457 -129.48269C74.45380 -113.65919 17.59971 -64.33925 -1.26827 -32.83219C-13.51684 -13.83158 -14.09756 -8.37340 -10.50678 17.71379C-0.36487 86.90596 17.90380 119.53695 63.12935 148.35899C80.51697 160.55765 90.00745 169.24842 92.33946 175.51740C95.14384 181.80394 101.83447 186.43457 112.39387 189.55588C139.60383 196.38715 154.78789 210.55811 155.65543 231.05712C156.05635 243.55107 155.38235 250.90890 152.40139 253.14845C148.20147 259.05634 79.45127 253.37581 62.87709 247.29642C19.98882 232.33331 -60.75528 167.18269 -82.35018 129.58250C-106.74983 90.22367 -118.78368 59.93399 -119.58683 38.37425C-121.35019 1.06484 -92.94325 -52.85804 -47.54129 -101.32595C-25.38621 -127.08288 56.44084 -188.97758 100.21407 -210.82868Z" fill="rgb(255,255,255)" fill-opacity="1.00" transform="matrix(0.995671 -0.09295 0.09295 0.995671 1938.425796 613.569857) translate(-9.094947017729282e-13 65.04226688027592)"></path><path d="M162.84946 -213.25972C175.77702 -218.26421 235.65519 -231.86014 343.21362 -249.95507C450.35579 -264.21452 524.22663 -268.47201 562.76184 -266.21777C598.43016 -263.23132 620.39100 -260.07016 624.68909 -256.94209C629.99265 -254.66528 628.91924 -245.57685 623.49475 -230.58142C618.86670 -215.61565 619.11825 -203.29105 623.33711 -193.56752C627.54522 -183.83199 628.57777 -177.28214 627.76436 -173.14402C626.48424 -170.63547 595.38102 -167.89918 535.62884 -164.97174C476.30492 -161.79863 444.50257 -156.78848 440.55439 -152.44891C437.01212 -148.13567 434.58067 -105.43794 435.04350 -23.68964C434.84134 89.35589 434.37970 163.95530 431.17674 199.28748C428.25309 234.57251 420.49964 257.83963 409.07080 269.06840C402.23541 274.66024 396.51587 278.64638 391.65906 279.44408C385.65916 280.23945 372.48554 281.03292 350.64182 281.03292C329.85544 281.03292 317.11471 280.25384 311.89549 279.47728C306.96386 278.70267 302.03707 275.60426 298.58259 270.18581C291.64190 260.16144 291.93064 205.27719 298.17204 103.70614C300.72329 54.72918 302.16673 10.47705 303.55154 -29.17618C306.30202 -80.66417 308.57762 -109.63567 310.63478 -116.10465C313.67915 -123.43134 309.81262 -128.38907 300.67716 -129.56870C290.54724 -130.58552 267.30274 -128.97000 232.34271 -124.66544C193.33916 -120.02578 169.13420 -118.16773 160.03459 -120.24335C151.15932 -121.58305 147.24884 -127.46500 149.42453 -138.78984C152.17684 -148.79117 150.23114 -158.66408 143.20162 -169.59532C130.40894 -189.32021 135.63911 -201.35028 162.84946 -213.25972Z" fill="rgb(255,255,255)" fill-opacity="1.00" transform="matrix(0.995671 -0.09295 0.09295 0.995671 1938.425796 613.569857) translate(-9.094947017729282e-13 65.04226688027592)"></path><path d="M862.69584 -290.76369C867.39691 -293.79204 921.50487 -291.05038 938.73180 -285.60119C953.99865 -281.03877 956.15796 -271.11143 943.98702 -268.09347C938.82454 -266.88653 934.86775 -259.87821 931.50629 -247.92741C925.00866 -215.80826 904.14538 -202.44383 854.80894 -197.55030C824.84123 -194.54680 798.35672 -192.79829 774.72826 -190.77727C721.95776 -187.01482 713.86798 -179.56434 717.98391 -123.44628C719.91672 -74.74752 720.86004 -73.92305 764.33548 -69.62436C797.82195 -65.88995 849.56663 -33.49252 849.93103 -17.05684C850.00433 -9.66063 846.09682 -4.00915 839.07942 -0.87132C831.22802 3.06749 810.78020 7.64149 779.01783 14.66153C743.48484 21.85803 722.53380 28.43477 716.48515 32.56821C709.39899 37.53545 708.48747 48.26847 712.58707 63.94092C718.27315 79.61749 720.29748 93.64887 720.30900 106.03094C721.03972 131.62064 731.27243 136.57514 767.78486 130.06418C790.20361 126.06476 813.91066 123.78955 840.27984 122.43296L883.31233 120.61142L901.50405 142.18582C918.72283 161.23769 919.76997 164.51388 914.74810 180.74567C907.81222 201.06587 897.15131 208.30675 860.05224 212.12199C816.30527 217.65066 743.51624 232.33520 726.78973 239.75866C707.85482 248.84209 673.93739 243.09343 658.70959 229.10417C647.86648 218.42026 640.32975 206.91703 637.58652 192.92942C634.67724 178.95257 633.10396 146.03435 631.10625 92.56006L625.12229 -52.14707C624.46402 -84.21118 625.03053 -112.19462 627.34292 -136.93412C630.71218 -180.63743 630.72293 -183.10625 615.05736 -199.85949C598.73807 -218.10454 593.97004 -236.76441 602.70229 -254.39840C605.69000 -261.10106 612.68774 -266.33298 625.79162 -270.14375C637.99461 -273.04412 659.53424 -276.14465 691.07264 -278.40497C801.92934 -285.00623 859.30664 -287.65635 862.69584 -290.76369Z" fill="rgb(255,255,255)" fill-opacity="1.00" transform="matrix(0.995671 -0.09295 0.09295 0.995671 1938.425796 613.569857) translate(-9.094947017729282e-13 65.04226688027592)"></path><path d="M932.52093 -282.04011C944.89905 -287.51895 960.27715 -288.57995 978.44341 -284.40216C995.39464 -280.23255 1021.06491 -269.34068 1052.58299 -253.53908C1101.16743 -227.22454 1118.35668 -216.11163 1163.57294 -172.73610C1226.53848 -114.51689 1251.41832 -77.40601 1266.28187 -24.60223C1273.29481 16.97384 1273.29481 43.45330 1255.37559 79.90619C1224.44470 135.05580 1164.56906 181.73658 1101.76650 196.25851C1086.67075 199.84816 1075.22213 207.50541 1067.71856 219.25566C1058.62703 234.20273 1051.87022 237.30217 1026.99383 242.65332C988.51357 251.21691 972.23304 246.27997 952.02022 223.45797C932.93170 201.32920 930.87144 181.77454 947.81223 165.79883C955.16940 158.62809 959.72941 149.82227 960.40977 139.30699C961.64409 128.80386 963.45560 98.08258 965.06319 47.13758C967.54759 -44.21850 969.40403 -98.32515 969.70365 -116.92906L972.90641 -175.74452L952.46903 -195.14114C932.98472 -213.63178 927.84414 -230.27765 922.59512 -263.25039C920.74129 -270.72360 923.31394 -277.05443 932.52093 -282.04011ZM1059.48130 93.70443C1059.38808 108.78596 1062.55059 116.03240 1069.63981 116.34188C1076.64244 117.43025 1092.60834 108.67580 1115.80214 90.23782C1160.59766 56.68915 1174.54254 37.82207 1177.83584 2.09583C1181.63043 -38.11210 1167.51956 -63.57188 1111.42018 -117.58639C1092.12969 -135.51479 1079.38778 -140.87160 1073.15026 -133.63539C1071.13640 -131.46916 1070.15877 -98.29513 1071.23499 -33.23933C1072.35849 30.98680 1071.50993 64.96665 1066.44181 68.64834C1061.62136 72.36784 1059.44262 80.19383 1059.48130 93.70443Z" fill="rgb(255,255,255)" fill-opacity="1.00" transform="matrix(0.995671 -0.09295 0.09295 0.995671 1938.425796 613.569857) translate(-9.094947017729282e-13 65.04226688027592)"></path></g></g>

  </svg>